<?xml version="1.0" standalone="no"?>
<!DOCTYPE svg PUBLIC "-//W3C//DTD SVG 20010904//EN"
 "http://www.w3.org/TR/2001/REC-SVG-20010904/DTD/svg10.dtd">
<svg version="1.0" xmlns="http://www.w3.org/2000/svg"
 width="256.000000pt" height="256.000000pt" viewBox="0 0 256.000000 256.000000"
 preserveAspectRatio="xMidYMid meet">

<g transform="translate(0.000000,256.000000) scale(0.100000,-0.100000)"
fill="#000000" stroke="none">
<path d="M1253 2385 c-119 -32 -211 -87 -303 -179 -36 -36 -68 -66 -72 -66
-13 0 -9 48 6 85 20 48 5 44 -44 -12 -53 -60 -93 -140 -122 -240 -20 -66 -23
-102 -23 -233 0 -150 1 -157 28 -208 15 -29 36 -87 45 -130 l18 -77 8 50 c12
81 27 123 57 157 41 45 43 61 14 117 -16 32 -25 67 -25 95 0 106 140 187 375
215 201 24 451 -51 522 -158 29 -43 30 -101 2 -161 -25 -54 -27 -105 -5 -129
20 -22 39 -112 34 -162 -6 -60 16 -24 31 50 6 33 20 70 30 83 61 78 72 190 37
372 l-20 99 23 42 c12 23 33 48 47 55 30 17 30 24 -1 44 -47 31 -126 56 -195
62 -39 4 -70 10 -70 15 0 9 121 69 139 69 29 0 5 18 -51 39 -111 41 -275 39
-425 -5 -21 -6 -22 -5 -12 24 6 16 26 46 46 66 l36 36 -39 -1 c-21 0 -62 -7
-91 -14z"/>
<path d="M1700 1103 c-11 -25 -34 -68 -50 -95 -26 -42 -30 -58 -30 -119 0 -78
-21 -172 -51 -231 -39 -77 -132 -159 -246 -216 l-42 -22 -75 51 c-138 92 -204
197 -213 341 -6 75 -9 86 -48 142 -24 34 -55 86 -70 116 l-28 55 -50 -55 c-75
-82 -101 -146 -101 -250 -1 -47 2 -99 6 -115 6 -28 3 -32 -25 -44 -62 -27
-186 -112 -225 -155 -22 -24 -50 -62 -61 -84 l-21 -41 58 -51 c158 -141 391
-261 575 -295 l37 -7 2 133 c1 74 1 155 -1 180 -2 49 14 74 43 63 13 -5 16
-33 18 -197 l3 -192 89 -8 c48 -4 125 -4 170 0 l81 8 3 186 c2 150 5 189 17
199 12 10 18 10 30 0 12 -10 15 -45 15 -193 l0 -180 40 7 c168 27 394 138 560
277 71 59 72 68 15 153 -41 61 -122 128 -230 191 -16 10 -16 13 0 63 35 107
-7 263 -100 370 -60 69 -70 70 -95 15z"/>
</g>
</svg>
